<?xml version="1.0" encoding="UTF-8" standalone="no"?>
<!-- Created with Inkscape (http://www.inkscape.org/) -->

<svg
   xmlns:osb="http://www.openswatchbook.org/uri/2009/osb"
   xmlns:dc="http://purl.org/dc/elements/1.1/"
   xmlns:cc="http://creativecommons.org/ns#"
   xmlns:rdf="http://www.w3.org/1999/02/22-rdf-syntax-ns#"
   xmlns:svg="http://www.w3.org/2000/svg"
   xmlns="http://www.w3.org/2000/svg"
   xmlns:xlink="http://www.w3.org/1999/xlink"
   xmlns:sodipodi="http://sodipodi.sourceforge.net/DTD/sodipodi-0.dtd"
   xmlns:inkscape="http://www.inkscape.org/namespaces/inkscape"
   width="60.179737mm"
   height="23.812498mm"
   viewBox="0 0 60.179738 23.812498"
   version="1.1"
   id="svg4910"
   inkscape:version="0.92.1 r15371"
   sodipodi:docname="header_wordmark.svg">
  <defs
     id="defs4904">
    <linearGradient
       id="linearGradient8220"
       osb:paint="solid">
      <stop
         style="stop-color:#ff2d2d;stop-opacity:1;"
         offset="0"
         id="stop8218" />
    </linearGradient>
    <linearGradient
       inkscape:collect="always"
       xlink:href="#linearGradient8220"
       id="linearGradient8252"
       x1="-5.5192924"
       y1="1674.4236"
       x2="857.01343"
       y2="1674.4236"
       gradientUnits="userSpaceOnUse" />
  </defs>
  <sodipodi:namedview
     id="base"
     pagecolor="#ffffff"
     bordercolor="#666666"
     borderopacity="1.0"
     inkscape:pageopacity="0.0"
     inkscape:pageshadow="2"
     inkscape:zoom="1"
     inkscape:cx="93.177494"
     inkscape:cy="56.865842"
     inkscape:document-units="mm"
     inkscape:current-layer="layer1"
     showgrid="false"
     inkscape:window-width="1600"
     inkscape:window-height="847"
     inkscape:window-x="-8"
     inkscape:window-y="-8"
     inkscape:window-maximized="1"
     inkscape:snap-bbox="true"
     inkscape:bbox-nodes="true"
     inkscape:snap-page="true"
     inkscape:pagecheckerboard="true" />
  <metadata
     id="metadata4907">
    <rdf:RDF>
      <cc:Work
         rdf:about="">
        <dc:format>image/svg+xml</dc:format>
        <dc:type
           rdf:resource="http://purl.org/dc/dcmitype/StillImage" />
        <dc:title></dc:title>
      </cc:Work>
    </rdf:RDF>
  </metadata>
  <g
     inkscape:label="Layer 1"
     inkscape:groupmode="layer"
     id="layer1"
     transform="translate(-64.154639,-140.22787)">
    <g
       transform="matrix(1.0027532,0,0,1.0027532,-389.15378,97.789883)"
       id="g5756"
       style="stroke-width:0.99725431">
      <path
         sodipodi:nodetypes="ccsssccccccsssccccccccccccssssssccccccsssccccccsscccccsscccsssssssssssssss"
         style="font-style:normal;font-variant:normal;font-weight:bold;font-stretch:normal;font-size:medium;line-height:125%;font-family:'Glacial Indifference';-inkscape-font-specification:'Glacial Indifference Bold';text-align:center;letter-spacing:0px;word-spacing:0px;text-anchor:middle;opacity:1;fill:#ffffff;fill-opacity:1;stroke:none;stroke-width:0.68842852px;stroke-linecap:butt;stroke-linejoin:miter;stroke-opacity:1"
         d="m 507.4082,-207.99023 v 53.81445 c -5.76581,-7.09639 -14.04509,-9.46094 -22.32422,-9.46094 -18.48018,0 -32.37695,16.11374 -32.37695,34.15039 0,18.03666 13.89677,34.003908 32.37695,34.003908 8.27913,0 17.88898,-2.661588 22.32422,-9.314458 v 7.835942 h 22.17578 V -185.8125 h 68.78125 v 31.63672 c -5.76581,-7.09639 -14.04509,-9.46094 -22.32421,-9.46094 -18.48019,0 -32.37696,16.11374 -32.37696,34.15039 0,18.03666 13.89677,34.003908 32.37696,34.003908 8.27912,0 17.88897,-2.661588 22.32421,-9.314458 v 7.835942 h 22.17579 l 0.002,-111.029292 z m -164.48437,10.49804 v 100.531252 h 58.25 v -20.105472 h -36.07422 v -80.42578 z m 84.01562,0 c -7.24423,0 -13.00976,5.76554 -13.00976,13.00977 0,7.09639 5.76553,13.00976 13.00976,13.00976 7.09639,0 13.00977,-5.91337 13.00977,-13.00976 0,-7.24423 -5.91338,-13.00977 -13.00977,-13.00977 z m 338.75,33.85547 c -8.42696,0 -16.5584,2.36455 -22.32422,9.46094 v -7.98242 H 721.18945 V -60 h 22.17578 v -44.79688 c 4.43525,6.65287 13.89726,9.314458 22.32422,9.314458 18.48018,0 32.37696,-15.967248 32.37696,-34.003908 0,-18.03665 -13.89678,-34.15039 -32.37696,-34.15039 z m -349.83789,1.47852 v 65.197262 h 22.17578 V -162.1582 Z m 220.98828,0 v 37.10742 c 0,17.59313 7.09573,29.568358 24.54102,29.568358 8.5748,0 15.52374,-3.842962 19.95898,-9.460938 v 7.982422 h 22.17578 V -162.1582 h -22.17578 v 32.67187 c 0,8.72265 -5.47137,16.26367 -12.41992,16.26367 -6.94855,0 -9.90429,-4.28821 -9.9043,-11.82812 v -37.10742 z m -144.95507,16.41015 c 8.87048,0 15.52343,7.68692 15.52343,16.26172 0,8.57481 -6.65295,16.26367 -15.52343,16.26367 -8.87049,0 -15.52344,-7.68886 -15.52344,-16.26367 0,-8.5748 6.65295,-16.26172 15.52344,-16.26172 z m 90.95703,0 c 8.87048,0 15.52343,7.68692 15.52343,16.26172 0,8.57481 -6.65295,16.26367 -15.52343,16.26367 -8.87049,0 -15.52344,-7.68886 -15.52344,-16.26367 0,-8.5748 6.65295,-16.26172 15.52344,-16.26172 z m 176.04687,0 c 8.87049,0 15.52344,7.68692 15.52344,16.26172 0,8.57481 -6.65295,16.26367 -15.52344,16.26367 -8.87048,0 -15.52344,-7.68886 -15.52344,-16.26367 0,-8.5748 6.65296,-16.26172 15.52344,-16.26172 z"
         transform="matrix(0.13185869,0,0,0.13185869,406.84631,69.74679)"
         id="path5609"
         inkscape:connector-curvature="0" />
      <rect
         style="opacity:1;fill:url(#linearGradient8252);fill-opacity:1;stroke:none;stroke-width:10.52376747;stroke-linecap:round;stroke-linejoin:miter;stroke-miterlimit:4;stroke-dasharray:none;stroke-dashoffset:0;stroke-opacity:1;paint-order:normal"
         id="rect5670"
         width="862.53271"
         height="1.0064402"
         x="-5.5192924"
         y="1673.9204"
         transform="matrix(0.06957939,0,0,2.1166667,452.44783,-3479.1933)" />
    </g>
  </g>
</svg>
