<?xml version="1.0" encoding="UTF-8" standalone="no"?>
<!-- Created with Inkscape (http://www.inkscape.org/) -->

<svg
   xmlns:dc="http://purl.org/dc/elements/1.1/"
   xmlns:cc="http://creativecommons.org/ns#"
   xmlns:rdf="http://www.w3.org/1999/02/22-rdf-syntax-ns#"
   xmlns:svg="http://www.w3.org/2000/svg"
   xmlns="http://www.w3.org/2000/svg"
   xmlns:sodipodi="http://sodipodi.sourceforge.net/DTD/sodipodi-0.dtd"
   xmlns:inkscape="http://www.inkscape.org/namespaces/inkscape"
   width="158.74998mm"
   height="158.75mm"
   viewBox="0 0 158.74998 158.75"
   version="1.1"
   id="svg5410"
   inkscape:version="0.92.1 r15371"
   sodipodi:docname="spotify_logo_white.svg">
  <defs
     id="defs5404" />
  <sodipodi:namedview
     id="base"
     pagecolor="#ffffff"
     bordercolor="#666666"
     borderopacity="1.0"
     inkscape:pageopacity="0.0"
     inkscape:pageshadow="2"
     inkscape:zoom="0.67478979"
     inkscape:cx="237.0997"
     inkscape:cy="290.78691"
     inkscape:document-units="mm"
     inkscape:current-layer="layer1"
     showgrid="false"
     inkscape:window-width="1600"
     inkscape:window-height="847"
     inkscape:window-x="-8"
     inkscape:window-y="-8"
     inkscape:window-maximized="1" />
  <metadata
     id="metadata5407">
    <rdf:RDF>
      <cc:Work
         rdf:about="">
        <dc:format>image/svg+xml</dc:format>
        <dc:type
           rdf:resource="http://purl.org/dc/dcmitype/StillImage" />
        <dc:title></dc:title>
      </cc:Work>
    </rdf:RDF>
  </metadata>
  <g
     inkscape:label="Layer 1"
     inkscape:groupmode="layer"
     id="layer1"
     transform="translate(1.7436684,-64.580383)">
    <path
       transform="matrix(0.07964379,0,0,0.07963846,-2.027085,64.308103)"
       inkscape:connector-curvature="0"
       id="path5402"
       d="m 959,1996.3352 c -52.67358,-2.8239 -86.13216,-6.4055 -129.93635,-13.9092 C 653.41404,1952.3368 487.25512,1873.8665 350.44935,1756.3952 272.31803,1689.306 204.05391,1609.2164 149.81111,1521 71.400462,1393.4789 22.589202,1248.5062 8.0634889,1100 4.2759104,1061.277 3.5783926,1045.8698 3.5589066,1000.5 3.5392801,954.80283 4.3264788,937.25835 8.0682138,900 29.207424,689.5062 115.0121,495.23992 257.84159,334.5 272.96043,317.4853 316.87937,273.61785 334,258.43089 373.23337,223.62868 405.13106,198.86794 446,171.49034 644.23608,38.694444 880.94032,-17.814975 1120,10.583432 c 188.826,22.431036 370.2433,100.558948 516.5,222.432258 36.0516,30.04124 81.996,74.56513 110.3975,106.98431 100.5327,114.75416 172.221,245.91939 212.6079,389 40.1306,142.17294 48.0222,293.3657 22.9954,440.5653 -43.6177,256.5464 -189.4586,489.0121 -402.377,641.3761 -80.1543,57.3583 -167.5008,102.1719 -260.6238,133.7143 -87.8854,29.7685 -175.5328,46.3355 -271.5,51.3188 -17.3732,0.9021 -74.576,1.134 -89,0.3607 z m 457.5,-526.8346 c 11.6828,-2.4444 22.8183,-8.5941 31.5002,-17.3964 4.1838,-4.2418 8.9059,-10.2604 10.6792,-13.6113 15.1973,-28.7177 6.2383,-63.803 -20.8927,-81.8201 -25.5492,-16.9667 -91.992,-51.4335 -132.208,-68.5821 -119.0559,-50.767 -237.5908,-77.637 -385.0787,-87.2913 -25.31126,-1.6568 -122.54325,-1.6482 -149.5,0.013 -105.11446,6.4786 -203.05529,20.6102 -302.5,43.6467 -23.04798,5.3391 -42.22362,24.5801 -47.00957,47.1697 -2.97205,14.0281 -1.24528,27.9335 5.10945,41.1455 5.10612,10.616 16.94148,22.4867 27.46772,27.5496 16.38117,7.879 29.20727,8.4213 55.9324,2.3645 154.18154,-34.9425 310.5161,-46.8469 448,-34.114 149.7626,13.8701 283.0462,56.1041 406.5,128.8091 7.15,4.2108 15.406,8.557 18.3467,9.6582 10.5643,3.9562 22.3728,4.8189 33.6533,2.4586 z m 107.1776,-263.5821 c 28.291,-3.9115 53.7731,-25.014 62.6936,-51.9185 3.7036,-11.1703 4.9673,-22.431 3.6931,-32.9105 -1.4065,-11.5673 -3.3403,-17.7938 -8.8795,-28.5895 -3.6037,-7.0235 -6.4918,-10.8891 -13.1513,-17.6021 -7.318,-7.3769 -11.1687,-10.168 -27.0335,-19.5946 -72.1513,-42.8711 -147.2149,-76.75483 -234.5,-105.85338 -124.4286,-41.48124 -248.2825,-64.81943 -390,-73.48897 -28.55431,-1.74681 -110.45461,-2.35831 -141.5,-1.0565 -118.45222,4.96697 -224.51019,21.59468 -327,51.26687 -27.11236,7.84939 -36.03666,12.65474 -48.71565,26.23128 C 385.76938,966.8743 379,984.26046 379,1004.5 c 0,30.3576 15.8638,56.2925 42.51411,69.5041 12.79023,6.3406 22.34449,8.3172 37.4016,7.7378 11.58603,-0.4459 14.13114,-0.9331 32.08429,-6.1422 162.13763,-47.0436 351.55952,-58.1575 538,-31.566 163.8641,23.3715 310.1933,72.5511 434.5718,146.0547 17.527,10.3579 24.5132,13.4023 35.1818,15.3314 9.7216,1.7579 15.0461,1.8644 24.924,0.4987 z M 1660.5,897.06625 c 33.966,-8.85899 60.8836,-37.16706 67.9502,-71.4603 2.043,-9.91414 2.1097,-27.83904 0.1381,-37.10773 -5.9614,-28.02525 -21.1133,-48.39311 -47.714,-64.13918 C 1570.8562,659.23471 1428.9924,606.7492 1273.3736,573.59564 1164.5948,550.42104 1054.3862,537.04837 930.5,531.99149 c -31.05492,-1.26762 -121.90163,-1.25379 -154,0.0235 -138.5556,5.51331 -267.40188,24.12473 -374.5,54.0953 -38.22463,10.69686 -46.58244,14.65895 -61.85914,29.32485 -13.24385,12.71433 -21.96862,27.68752 -26.33067,45.18792 -3.1084,12.47078 -3.1084,31.2832 0,43.75398 4.50139,18.05941 13.24531,32.78662 27.42121,46.18495 14.48871,13.69399 32.84198,22.13065 53.42401,24.55802 13.34151,1.57345 24.82162,0.0359 46.48414,-6.22583 C 607.51436,720.80235 827.21744,705.12157 1041,726.08051 c 208.6673,20.45746 395.3503,73.79129 534,152.55959 25.8188,14.66791 32.9157,17.61477 50,20.76143 6.0577,1.11573 27.7362,-0.31035 35.5,-2.33528 z"
       style="fill:#ffffff;fill-opacity:1;stroke-width:12.55632496" />
  </g>
</svg>
